<svg width="160" height="160" viewBox="0 0 160 160" fill="none" xmlns="http://www.w3.org/2000/svg">
  <defs>
    <linearGradient id="tide-body" x1="30" y1="30" x2="130" y2="130" gradientUnits="userSpaceOnUse">
      <stop stop-color="#BEEAFF"/>
      <stop offset="1" stop-color="#72C9FF"/>
    </linearGradient>
    <linearGradient id="tide-cheek" x1="0" y1="0" x2="24" y2="20" gradientUnits="userSpaceOnUse">
      <stop stop-color="#FFB7A2" stop-opacity="0.6"/>
      <stop offset="1" stop-color="#FF8A65" stop-opacity="0.3"/>
    </linearGradient>
  </defs>
  <rect x="20" y="36" width="120" height="88" rx="36" fill="url(#tide-body)"/>
  <path d="M34 84C42 96 54 104 74 107C96 111 112 105 126 91" stroke="#1FA4FF" stroke-width="6" stroke-linecap="round"/>
  <circle cx="70" cy="78" r="10" fill="#2C2C2C"/>
  <circle cx="102" cy="78" r="10" fill="#2C2C2C"/>
  <path d="M86 96C90.4183 96 94 92.4183 94 88C94 87.1716 93.3284 86.5 92.5 86.5H79.5C78.6716 86.5 78 87.1716 78 88C78 92.4183 81.5817 96 86 96Z" fill="#2C2C2C"/>
  <ellipse cx="54" cy="88" rx="12" ry="8" fill="url(#tide-cheek)" opacity="0.8"/>
  <ellipse cx="118" cy="88" rx="12" ry="8" fill="url(#tide-cheek)" opacity="0.8"/>
  <path d="M40 60C48 48 60 40 82 40C108 40 120 54 128 66" stroke="#1FA4FF" stroke-width="6" stroke-linecap="round"/>
  <ellipse cx="80" cy="130" rx="40" ry="14" fill="#72C9FF" fill-opacity="0.35"/>
</svg>
